<?xml version="1.0" encoding="utf-8" standalone="no"?>
<!DOCTYPE svg PUBLIC "-//W3C//DTD SVG 1.1//EN"
  "http://www.w3.org/Graphics/SVG/1.1/DTD/svg11.dtd">
<svg xmlns:xlink="http://www.w3.org/1999/xlink" width="144pt" height="180pt" viewBox="0 0 144 180" xmlns="http://www.w3.org/2000/svg" version="1.1">
 <metadata>
  <rdf:RDF xmlns:dc="http://purl.org/dc/elements/1.1/" xmlns:cc="http://creativecommons.org/ns#" xmlns:rdf="http://www.w3.org/1999/02/22-rdf-syntax-ns#">
   <cc:Work>
    <dc:type rdf:resource="http://purl.org/dc/dcmitype/StillImage"/>
    <dc:date>2026-03-10T18:21:36.318764</dc:date>
    <dc:format>image/svg+xml</dc:format>
    <dc:creator>
     <cc:Agent>
      <dc:title>Matplotlib v3.10.8, https://matplotlib.org/</dc:title>
     </cc:Agent>
    </dc:creator>
   </cc:Work>
  </rdf:RDF>
 </metadata>
 <defs>
  <style type="text/css">*{stroke-linejoin: round; stroke-linecap: butt}</style>
 </defs>
 <g id="figure_1">
  <g id="axes_1">
   <g id="patch_1">
    <path d="M 49.112516 146.64351 
L 74.460721 146.64351 
L 74.460721 104.712675 
L 49.112516 104.712675 
L 49.112516 146.64351 
z
" clip-path="url(#p48493dcdde)" style="fill: none; stroke: #000000; stroke-width: 2.25; stroke-linejoin: miter"/>
   </g>
   <g id="patch_2">
    <path d="M 80.797772 146.64351 
L 106.145978 146.64351 
L 106.145978 83.885812 
L 80.797772 83.885812 
L 80.797772 146.64351 
z
" clip-path="url(#p48493dcdde)" style="fill: none; stroke: #000000; stroke-width: 2.25; stroke-linejoin: miter"/>
   </g>
   <g id="patch_3">
    <path d="M 112.483029 146.64351 
L 137.831234 146.64351 
L 137.831234 87.50606 
L 112.483029 87.50606 
L 112.483029 146.64351 
z
" clip-path="url(#p48493dcdde)" style="fill: none; stroke: #000000; stroke-width: 2.25; stroke-linejoin: miter"/>
   </g>
   <g id="matplotlib.axis_1">
    <g id="xtick_1">
     <g id="line2d_1">
      <defs>
       <path id="m0eaf22c036" d="M 0 0 
L 0 3.5 
" style="stroke: #000000; stroke-width: 0.8"/>
      </defs>
      <g>
       <use xlink:href="#m0eaf22c036" x="61.786618" y="146.64351" style="stroke: #000000; stroke-width: 0.8"/>
      </g>
     </g>
     <g id="text_1">
      <!-- 1 -->
      <g transform="translate(58.605368 161.241948) scale(0.1 -0.1)">
       <defs>
        <path id="DejaVuSans-31" d="M 794 531 
L 1825 531 
L 1825 4091 
L 703 3866 
L 703 4441 
L 1819 4666 
L 2450 4666 
L 2450 531 
L 3481 531 
L 3481 0 
L 794 0 
L 794 531 
z
" transform="scale(0.015625)"/>
       </defs>
       <use xlink:href="#DejaVuSans-31"/>
      </g>
     </g>
    </g>
    <g id="xtick_2">
     <g id="line2d_2">
      <g>
       <use xlink:href="#m0eaf22c036" x="93.471875" y="146.64351" style="stroke: #000000; stroke-width: 0.8"/>
      </g>
     </g>
     <g id="text_2">
      <!-- 2 -->
      <g transform="translate(90.290625 161.241948) scale(0.1 -0.1)">
       <defs>
        <path id="DejaVuSans-32" d="M 1228 531 
L 3431 531 
L 3431 0 
L 469 0 
L 469 531 
Q 828 903 1448 1529 
Q 2069 2156 2228 2338 
Q 2531 2678 2651 2914 
Q 2772 3150 2772 3378 
Q 2772 3750 2511 3984 
Q 2250 4219 1831 4219 
Q 1534 4219 1204 4116 
Q 875 4013 500 3803 
L 500 4441 
Q 881 4594 1212 4672 
Q 1544 4750 1819 4750 
Q 2544 4750 2975 4387 
Q 3406 4025 3406 3419 
Q 3406 3131 3298 2873 
Q 3191 2616 2906 2266 
Q 2828 2175 2409 1742 
Q 1991 1309 1228 531 
z
" transform="scale(0.015625)"/>
       </defs>
       <use xlink:href="#DejaVuSans-32"/>
      </g>
     </g>
    </g>
    <g id="xtick_3">
     <g id="line2d_3">
      <g>
       <use xlink:href="#m0eaf22c036" x="125.157132" y="146.64351" style="stroke: #000000; stroke-width: 0.8"/>
      </g>
     </g>
     <g id="text_3">
      <!-- 3 -->
      <g transform="translate(121.975882 161.241948) scale(0.1 -0.1)">
       <defs>
        <path id="DejaVuSans-33" d="M 2597 2516 
Q 3050 2419 3304 2112 
Q 3559 1806 3559 1356 
Q 3559 666 3084 287 
Q 2609 -91 1734 -91 
Q 1441 -91 1130 -33 
Q 819 25 488 141 
L 488 750 
Q 750 597 1062 519 
Q 1375 441 1716 441 
Q 2309 441 2620 675 
Q 2931 909 2931 1356 
Q 2931 1769 2642 2001 
Q 2353 2234 1838 2234 
L 1294 2234 
L 1294 2753 
L 1863 2753 
Q 2328 2753 2575 2939 
Q 2822 3125 2822 3475 
Q 2822 3834 2567 4026 
Q 2313 4219 1838 4219 
Q 1578 4219 1281 4162 
Q 984 4106 628 3988 
L 628 4550 
Q 988 4650 1302 4700 
Q 1616 4750 1894 4750 
Q 2613 4750 3031 4423 
Q 3450 4097 3450 3541 
Q 3450 3153 3228 2886 
Q 3006 2619 2597 2516 
z
" transform="scale(0.015625)"/>
       </defs>
       <use xlink:href="#DejaVuSans-33"/>
      </g>
     </g>
    </g>
    <g id="text_4">
     <!-- Brain Area -->
     <g transform="translate(67.271094 174.920073) scale(0.1 -0.1)">
      <defs>
       <path id="DejaVuSans-42" d="M 1259 2228 
L 1259 519 
L 2272 519 
Q 2781 519 3026 730 
Q 3272 941 3272 1375 
Q 3272 1813 3026 2020 
Q 2781 2228 2272 2228 
L 1259 2228 
z
M 1259 4147 
L 1259 2741 
L 2194 2741 
Q 2656 2741 2882 2914 
Q 3109 3088 3109 3444 
Q 3109 3797 2882 3972 
Q 2656 4147 2194 4147 
L 1259 4147 
z
M 628 4666 
L 2241 4666 
Q 2963 4666 3353 4366 
Q 3744 4066 3744 3513 
Q 3744 3084 3544 2831 
Q 3344 2578 2956 2516 
Q 3422 2416 3680 2098 
Q 3938 1781 3938 1306 
Q 3938 681 3513 340 
Q 3088 0 2303 0 
L 628 0 
L 628 4666 
z
" transform="scale(0.015625)"/>
       <path id="DejaVuSans-72" d="M 2631 2963 
Q 2534 3019 2420 3045 
Q 2306 3072 2169 3072 
Q 1681 3072 1420 2755 
Q 1159 2438 1159 1844 
L 1159 0 
L 581 0 
L 581 3500 
L 1159 3500 
L 1159 2956 
Q 1341 3275 1631 3429 
Q 1922 3584 2338 3584 
Q 2397 3584 2469 3576 
Q 2541 3569 2628 3553 
L 2631 2963 
z
" transform="scale(0.015625)"/>
       <path id="DejaVuSans-61" d="M 2194 1759 
Q 1497 1759 1228 1600 
Q 959 1441 959 1056 
Q 959 750 1161 570 
Q 1363 391 1709 391 
Q 2188 391 2477 730 
Q 2766 1069 2766 1631 
L 2766 1759 
L 2194 1759 
z
M 3341 1997 
L 3341 0 
L 2766 0 
L 2766 531 
Q 2569 213 2275 61 
Q 1981 -91 1556 -91 
Q 1019 -91 701 211 
Q 384 513 384 1019 
Q 384 1609 779 1909 
Q 1175 2209 1959 2209 
L 2766 2209 
L 2766 2266 
Q 2766 2663 2505 2880 
Q 2244 3097 1772 3097 
Q 1472 3097 1187 3025 
Q 903 2953 641 2809 
L 641 3341 
Q 956 3463 1253 3523 
Q 1550 3584 1831 3584 
Q 2591 3584 2966 3190 
Q 3341 2797 3341 1997 
z
" transform="scale(0.015625)"/>
       <path id="DejaVuSans-69" d="M 603 3500 
L 1178 3500 
L 1178 0 
L 603 0 
L 603 3500 
z
M 603 4863 
L 1178 4863 
L 1178 4134 
L 603 4134 
L 603 4863 
z
" transform="scale(0.015625)"/>
       <path id="DejaVuSans-6e" d="M 3513 2113 
L 3513 0 
L 2938 0 
L 2938 2094 
Q 2938 2591 2744 2837 
Q 2550 3084 2163 3084 
Q 1697 3084 1428 2787 
Q 1159 2491 1159 1978 
L 1159 0 
L 581 0 
L 581 3500 
L 1159 3500 
L 1159 2956 
Q 1366 3272 1645 3428 
Q 1925 3584 2291 3584 
Q 2894 3584 3203 3211 
Q 3513 2838 3513 2113 
z
" transform="scale(0.015625)"/>
       <path id="DejaVuSans-20" transform="scale(0.015625)"/>
       <path id="DejaVuSans-41" d="M 2188 4044 
L 1331 1722 
L 3047 1722 
L 2188 4044 
z
M 1831 4666 
L 2547 4666 
L 4325 0 
L 3669 0 
L 3244 1197 
L 1141 1197 
L 716 0 
L 50 0 
L 1831 4666 
z
" transform="scale(0.015625)"/>
       <path id="DejaVuSans-65" d="M 3597 1894 
L 3597 1613 
L 953 1613 
Q 991 1019 1311 708 
Q 1631 397 2203 397 
Q 2534 397 2845 478 
Q 3156 559 3463 722 
L 3463 178 
Q 3153 47 2828 -22 
Q 2503 -91 2169 -91 
Q 1331 -91 842 396 
Q 353 884 353 1716 
Q 353 2575 817 3079 
Q 1281 3584 2069 3584 
Q 2775 3584 3186 3129 
Q 3597 2675 3597 1894 
z
M 3022 2063 
Q 3016 2534 2758 2815 
Q 2500 3097 2075 3097 
Q 1594 3097 1305 2825 
Q 1016 2553 972 2059 
L 3022 2063 
z
" transform="scale(0.015625)"/>
      </defs>
      <use xlink:href="#DejaVuSans-42"/>
      <use xlink:href="#DejaVuSans-72" transform="translate(68.603516 0)"/>
      <use xlink:href="#DejaVuSans-61" transform="translate(109.716797 0)"/>
      <use xlink:href="#DejaVuSans-69" transform="translate(170.996094 0)"/>
      <use xlink:href="#DejaVuSans-6e" transform="translate(198.779297 0)"/>
      <use xlink:href="#DejaVuSans-20" transform="translate(262.158203 0)"/>
      <use xlink:href="#DejaVuSans-41" transform="translate(293.945312 0)"/>
      <use xlink:href="#DejaVuSans-72" transform="translate(362.353516 0)"/>
      <use xlink:href="#DejaVuSans-65" transform="translate(401.216797 0)"/>
      <use xlink:href="#DejaVuSans-61" transform="translate(462.740234 0)"/>
     </g>
    </g>
   </g>
   <g id="matplotlib.axis_2">
    <g id="ytick_1">
     <g id="line2d_4">
      <defs>
       <path id="m23e2bf67fe" d="M 0 0 
L -3.5 0 
" style="stroke: #000000; stroke-width: 0.8"/>
      </defs>
      <g>
       <use xlink:href="#m23e2bf67fe" x="45.94399" y="146.64351" style="stroke: #000000; stroke-width: 0.8"/>
      </g>
     </g>
     <g id="text_5">
      <!-- 0.00 -->
      <g transform="translate(16.678365 150.442729) scale(0.1 -0.1)">
       <defs>
        <path id="DejaVuSans-30" d="M 2034 4250 
Q 1547 4250 1301 3770 
Q 1056 3291 1056 2328 
Q 1056 1369 1301 889 
Q 1547 409 2034 409 
Q 2525 409 2770 889 
Q 3016 1369 3016 2328 
Q 3016 3291 2770 3770 
Q 2525 4250 2034 4250 
z
M 2034 4750 
Q 2819 4750 3233 4129 
Q 3647 3509 3647 2328 
Q 3647 1150 3233 529 
Q 2819 -91 2034 -91 
Q 1250 -91 836 529 
Q 422 1150 422 2328 
Q 422 3509 836 4129 
Q 1250 4750 2034 4750 
z
" transform="scale(0.015625)"/>
        <path id="DejaVuSans-2e" d="M 684 794 
L 1344 794 
L 1344 0 
L 684 0 
L 684 794 
z
" transform="scale(0.015625)"/>
       </defs>
       <use xlink:href="#DejaVuSans-30"/>
       <use xlink:href="#DejaVuSans-2e" transform="translate(63.623047 0)"/>
       <use xlink:href="#DejaVuSans-30" transform="translate(95.410156 0)"/>
       <use xlink:href="#DejaVuSans-30" transform="translate(159.033203 0)"/>
      </g>
     </g>
    </g>
    <g id="ytick_2">
     <g id="line2d_5">
      <g>
       <use xlink:href="#m23e2bf67fe" x="45.94399" y="108.303704" style="stroke: #000000; stroke-width: 0.8"/>
      </g>
     </g>
     <g id="text_6">
      <!-- 0.05 -->
      <g transform="translate(16.678365 112.102923) scale(0.1 -0.1)">
       <defs>
        <path id="DejaVuSans-35" d="M 691 4666 
L 3169 4666 
L 3169 4134 
L 1269 4134 
L 1269 2991 
Q 1406 3038 1543 3061 
Q 1681 3084 1819 3084 
Q 2600 3084 3056 2656 
Q 3513 2228 3513 1497 
Q 3513 744 3044 326 
Q 2575 -91 1722 -91 
Q 1428 -91 1123 -41 
Q 819 9 494 109 
L 494 744 
Q 775 591 1075 516 
Q 1375 441 1709 441 
Q 2250 441 2565 725 
Q 2881 1009 2881 1497 
Q 2881 1984 2565 2268 
Q 2250 2553 1709 2553 
Q 1456 2553 1204 2497 
Q 953 2441 691 2322 
L 691 4666 
z
" transform="scale(0.015625)"/>
       </defs>
       <use xlink:href="#DejaVuSans-30"/>
       <use xlink:href="#DejaVuSans-2e" transform="translate(63.623047 0)"/>
       <use xlink:href="#DejaVuSans-30" transform="translate(95.410156 0)"/>
       <use xlink:href="#DejaVuSans-35" transform="translate(159.033203 0)"/>
      </g>
     </g>
    </g>
    <g id="ytick_3">
     <g id="line2d_6">
      <g>
       <use xlink:href="#m23e2bf67fe" x="45.94399" y="69.963898" style="stroke: #000000; stroke-width: 0.8"/>
      </g>
     </g>
     <g id="text_7">
      <!-- 0.10 -->
      <g transform="translate(16.678365 73.763117) scale(0.1 -0.1)">
       <use xlink:href="#DejaVuSans-30"/>
       <use xlink:href="#DejaVuSans-2e" transform="translate(63.623047 0)"/>
       <use xlink:href="#DejaVuSans-31" transform="translate(95.410156 0)"/>
       <use xlink:href="#DejaVuSans-30" transform="translate(159.033203 0)"/>
      </g>
     </g>
    </g>
    <g id="ytick_4">
     <g id="line2d_7">
      <g>
       <use xlink:href="#m23e2bf67fe" x="45.94399" y="31.624092" style="stroke: #000000; stroke-width: 0.8"/>
      </g>
     </g>
     <g id="text_8">
      <!-- 0.15 -->
      <g transform="translate(16.678365 35.42331) scale(0.1 -0.1)">
       <use xlink:href="#DejaVuSans-30"/>
       <use xlink:href="#DejaVuSans-2e" transform="translate(63.623047 0)"/>
       <use xlink:href="#DejaVuSans-31" transform="translate(95.410156 0)"/>
       <use xlink:href="#DejaVuSans-35" transform="translate(159.033203 0)"/>
      </g>
     </g>
    </g>
    <g id="text_9">
     <!-- Mean Correlation -->
     <g transform="translate(10.598677 117.603125) rotate(-90) scale(0.1 -0.1)">
      <defs>
       <path id="DejaVuSans-4d" d="M 628 4666 
L 1569 4666 
L 2759 1491 
L 3956 4666 
L 4897 4666 
L 4897 0 
L 4281 0 
L 4281 4097 
L 3078 897 
L 2444 897 
L 1241 4097 
L 1241 0 
L 628 0 
L 628 4666 
z
" transform="scale(0.015625)"/>
       <path id="DejaVuSans-43" d="M 4122 4306 
L 4122 3641 
Q 3803 3938 3442 4084 
Q 3081 4231 2675 4231 
Q 1875 4231 1450 3742 
Q 1025 3253 1025 2328 
Q 1025 1406 1450 917 
Q 1875 428 2675 428 
Q 3081 428 3442 575 
Q 3803 722 4122 1019 
L 4122 359 
Q 3791 134 3420 21 
Q 3050 -91 2638 -91 
Q 1578 -91 968 557 
Q 359 1206 359 2328 
Q 359 3453 968 4101 
Q 1578 4750 2638 4750 
Q 3056 4750 3426 4639 
Q 3797 4528 4122 4306 
z
" transform="scale(0.015625)"/>
       <path id="DejaVuSans-6f" d="M 1959 3097 
Q 1497 3097 1228 2736 
Q 959 2375 959 1747 
Q 959 1119 1226 758 
Q 1494 397 1959 397 
Q 2419 397 2687 759 
Q 2956 1122 2956 1747 
Q 2956 2369 2687 2733 
Q 2419 3097 1959 3097 
z
M 1959 3584 
Q 2709 3584 3137 3096 
Q 3566 2609 3566 1747 
Q 3566 888 3137 398 
Q 2709 -91 1959 -91 
Q 1206 -91 779 398 
Q 353 888 353 1747 
Q 353 2609 779 3096 
Q 1206 3584 1959 3584 
z
" transform="scale(0.015625)"/>
       <path id="DejaVuSans-6c" d="M 603 4863 
L 1178 4863 
L 1178 0 
L 603 0 
L 603 4863 
z
" transform="scale(0.015625)"/>
       <path id="DejaVuSans-74" d="M 1172 4494 
L 1172 3500 
L 2356 3500 
L 2356 3053 
L 1172 3053 
L 1172 1153 
Q 1172 725 1289 603 
Q 1406 481 1766 481 
L 2356 481 
L 2356 0 
L 1766 0 
Q 1100 0 847 248 
Q 594 497 594 1153 
L 594 3053 
L 172 3053 
L 172 3500 
L 594 3500 
L 594 4494 
L 1172 4494 
z
" transform="scale(0.015625)"/>
      </defs>
      <use xlink:href="#DejaVuSans-4d"/>
      <use xlink:href="#DejaVuSans-65" transform="translate(86.279297 0)"/>
      <use xlink:href="#DejaVuSans-61" transform="translate(147.802734 0)"/>
      <use xlink:href="#DejaVuSans-6e" transform="translate(209.082031 0)"/>
      <use xlink:href="#DejaVuSans-20" transform="translate(272.460938 0)"/>
      <use xlink:href="#DejaVuSans-43" transform="translate(304.248047 0)"/>
      <use xlink:href="#DejaVuSans-6f" transform="translate(374.072266 0)"/>
      <use xlink:href="#DejaVuSans-72" transform="translate(435.253906 0)"/>
      <use xlink:href="#DejaVuSans-72" transform="translate(474.617188 0)"/>
      <use xlink:href="#DejaVuSans-65" transform="translate(513.480469 0)"/>
      <use xlink:href="#DejaVuSans-6c" transform="translate(575.003906 0)"/>
      <use xlink:href="#DejaVuSans-61" transform="translate(602.787109 0)"/>
      <use xlink:href="#DejaVuSans-74" transform="translate(664.066406 0)"/>
      <use xlink:href="#DejaVuSans-69" transform="translate(703.275391 0)"/>
      <use xlink:href="#DejaVuSans-6f" transform="translate(731.058594 0)"/>
      <use xlink:href="#DejaVuSans-6e" transform="translate(792.240234 0)"/>
     </g>
    </g>
   </g>
   <g id="patch_4">
    <path d="M 45.94399 146.64351 
L 45.94399 3.00024 
" style="fill: none; stroke: #000000; stroke-width: 0.8; stroke-linejoin: miter; stroke-linecap: square"/>
   </g>
   <g id="patch_5">
    <path d="M 45.94399 146.64351 
L 140.99976 146.64351 
" style="fill: none; stroke: #000000; stroke-width: 0.8; stroke-linejoin: miter; stroke-linecap: square"/>
   </g>
   <g id="PathCollection_1">
    <defs>
     <path id="maa0df626bd" d="M 0 1.5 
C 0.397805 1.5 0.77937 1.341951 1.06066 1.06066 
C 1.341951 0.77937 1.5 0.397805 1.5 0 
C 1.5 -0.397805 1.341951 -0.77937 1.06066 -1.06066 
C 0.77937 -1.341951 0.397805 -1.5 0 -1.5 
C -0.397805 -1.5 -0.77937 -1.341951 -1.06066 -1.06066 
C -1.341951 -0.77937 -1.5 -0.397805 -1.5 0 
C -1.5 0.397805 -1.341951 0.77937 -1.06066 1.06066 
C -0.77937 1.341951 -0.397805 1.5 0 1.5 
z
"/>
    </defs>
    <g clip-path="url(#p48493dcdde)">
     <use xlink:href="#maa0df626bd" x="62.01243" y="94.654028" style="fill-opacity: 0.5"/>
     <use xlink:href="#maa0df626bd" x="62.324858" y="66.349349" style="fill-opacity: 0.5"/>
     <use xlink:href="#maa0df626bd" x="58.753845" y="122.772431" style="fill-opacity: 0.5"/>
     <use xlink:href="#maa0df626bd" x="62.100351" y="104.862074" style="fill-opacity: 0.5"/>
     <use xlink:href="#maa0df626bd" x="62.672338" y="96.961933" style="fill-opacity: 0.5"/>
     <use xlink:href="#maa0df626bd" x="62.581559" y="101.029287" style="fill-opacity: 0.5"/>
     <use xlink:href="#maa0df626bd" x="63.552917" y="123.270548" style="fill-opacity: 0.5"/>
     <use xlink:href="#maa0df626bd" x="64.722453" y="122.184502" style="fill-opacity: 0.5"/>
     <use xlink:href="#maa0df626bd" x="63.515097" y="116.87174" style="fill-opacity: 0.5"/>
     <use xlink:href="#maa0df626bd" x="60.199872" y="131.823506" style="fill-opacity: 0.5"/>
     <use xlink:href="#maa0df626bd" x="64.29192" y="53.114687" style="fill-opacity: 0.5"/>
     <use xlink:href="#maa0df626bd" x="58.823544" y="136.923516" style="fill-opacity: 0.5"/>
     <use xlink:href="#maa0df626bd" x="60.691262" y="127.004225" style="fill-opacity: 0.5"/>
     <use xlink:href="#maa0df626bd" x="58.666761" y="113.449551" style="fill-opacity: 0.5"/>
     <use xlink:href="#maa0df626bd" x="62.402148" y="24.885807" style="fill-opacity: 0.5"/>
     <use xlink:href="#maa0df626bd" x="59.834575" y="130.519083" style="fill-opacity: 0.5"/>
     <use xlink:href="#maa0df626bd" x="59.597422" y="117.062133" style="fill-opacity: 0.5"/>
     <use xlink:href="#maa0df626bd" x="64.704368" y="101.089742" style="fill-opacity: 0.5"/>
    </g>
   </g>
   <g id="PathCollection_2">
    <g clip-path="url(#p48493dcdde)">
     <use xlink:href="#maa0df626bd" x="91.032421" y="66.910829" style="fill-opacity: 0.5"/>
     <use xlink:href="#maa0df626bd" x="96.10419" y="9.840396" style="fill-opacity: 0.5"/>
     <use xlink:href="#maa0df626bd" x="92.208583" y="101.171861" style="fill-opacity: 0.5"/>
     <use xlink:href="#maa0df626bd" x="91.853546" y="21.056678" style="fill-opacity: 0.5"/>
     <use xlink:href="#maa0df626bd" x="94.131378" y="107.350543" style="fill-opacity: 0.5"/>
     <use xlink:href="#maa0df626bd" x="95.664876" y="102.800345" style="fill-opacity: 0.5"/>
     <use xlink:href="#maa0df626bd" x="92.58933" y="130.253231" style="fill-opacity: 0.5"/>
     <use xlink:href="#maa0df626bd" x="93.078924" y="55.451626" style="fill-opacity: 0.5"/>
     <use xlink:href="#maa0df626bd" x="94.109555" y="33.897462" style="fill-opacity: 0.5"/>
     <use xlink:href="#maa0df626bd" x="93.853307" y="55.77237" style="fill-opacity: 0.5"/>
     <use xlink:href="#maa0df626bd" x="96.366077" y="98.205914" style="fill-opacity: 0.5"/>
     <use xlink:href="#maa0df626bd" x="93.876914" y="131.293546" style="fill-opacity: 0.5"/>
     <use xlink:href="#maa0df626bd" x="90.618055" y="85.092387" style="fill-opacity: 0.5"/>
     <use xlink:href="#maa0df626bd" x="91.587745" y="125.590999" style="fill-opacity: 0.5"/>
     <use xlink:href="#maa0df626bd" x="91.174849" y="82.729248" style="fill-opacity: 0.5"/>
     <use xlink:href="#maa0df626bd" x="95.530098" y="112.146253" style="fill-opacity: 0.5"/>
     <use xlink:href="#maa0df626bd" x="92.125335" y="116.208688" style="fill-opacity: 0.5"/>
     <use xlink:href="#maa0df626bd" x="92.949734" y="74.172249" style="fill-opacity: 0.5"/>
    </g>
   </g>
   <g id="PathCollection_3">
    <g clip-path="url(#p48493dcdde)">
     <use xlink:href="#maa0df626bd" x="125.764755" y="110.840928" style="fill-opacity: 0.5"/>
     <use xlink:href="#maa0df626bd" x="123.265007" y="114.282805" style="fill-opacity: 0.5"/>
     <use xlink:href="#maa0df626bd" x="124.647359" y="77.355532" style="fill-opacity: 0.5"/>
     <use xlink:href="#maa0df626bd" x="127.251654" y="86.688136" style="fill-opacity: 0.5"/>
     <use xlink:href="#maa0df626bd" x="124.934111" y="104.398714" style="fill-opacity: 0.5"/>
     <use xlink:href="#maa0df626bd" x="125.502793" y="55.675392" style="fill-opacity: 0.5"/>
     <use xlink:href="#maa0df626bd" x="127.05058" y="54.322664" style="fill-opacity: 0.5"/>
     <use xlink:href="#maa0df626bd" x="122.119111" y="78.543484" style="fill-opacity: 0.5"/>
     <use xlink:href="#maa0df626bd" x="123.196892" y="104.379679" style="fill-opacity: 0.5"/>
     <use xlink:href="#maa0df626bd" x="126.879557" y="119.25962" style="fill-opacity: 0.5"/>
     <use xlink:href="#maa0df626bd" x="127.834687" y="115.481933" style="fill-opacity: 0.5"/>
     <use xlink:href="#maa0df626bd" x="126.859213" y="92.87181" style="fill-opacity: 0.5"/>
     <use xlink:href="#maa0df626bd" x="125.737168" y="45.415939" style="fill-opacity: 0.5"/>
     <use xlink:href="#maa0df626bd" x="122.595032" y="141.396072" style="fill-opacity: 0.5"/>
     <use xlink:href="#maa0df626bd" x="125.532658" y="80.149919" style="fill-opacity: 0.5"/>
     <use xlink:href="#maa0df626bd" x="125.565674" y="28.806838" style="fill-opacity: 0.5"/>
     <use xlink:href="#maa0df626bd" x="127.237316" y="94.488412" style="fill-opacity: 0.5"/>
     <use xlink:href="#maa0df626bd" x="125.988535" y="70.751201" style="fill-opacity: 0.5"/>
    </g>
   </g>
  </g>
 </g>
 <defs>
  <clipPath id="p48493dcdde">
   <rect x="45.94399" y="3.00024" width="95.05577" height="143.64327"/>
  </clipPath>
 </defs>
</svg>
