<?xml version="1.0" encoding="utf-8" standalone="no"?>
<!DOCTYPE svg PUBLIC "-//W3C//DTD SVG 1.1//EN"
  "http://www.w3.org/Graphics/SVG/1.1/DTD/svg11.dtd">
<svg xmlns:xlink="http://www.w3.org/1999/xlink" width="144pt" height="180pt" viewBox="0 0 144 180" xmlns="http://www.w3.org/2000/svg" version="1.1">
 <metadata>
  <rdf:RDF xmlns:dc="http://purl.org/dc/elements/1.1/" xmlns:cc="http://creativecommons.org/ns#" xmlns:rdf="http://www.w3.org/1999/02/22-rdf-syntax-ns#">
   <cc:Work>
    <dc:type rdf:resource="http://purl.org/dc/dcmitype/StillImage"/>
    <dc:date>2026-03-10T16:09:32.094659</dc:date>
    <dc:format>image/svg+xml</dc:format>
    <dc:creator>
     <cc:Agent>
      <dc:title>Matplotlib v3.10.8, https://matplotlib.org/</dc:title>
     </cc:Agent>
    </dc:creator>
   </cc:Work>
  </rdf:RDF>
 </metadata>
 <defs>
  <style type="text/css">*{stroke-linejoin: round; stroke-linecap: butt}</style>
 </defs>
 <g id="figure_1">
  <g id="axes_1">
   <g id="matplotlib.axis_1">
    <g id="xtick_1">
     <g id="line2d_1">
      <defs>
       <path id="m795eef94f2" d="M 0 0 
L 0 3.5 
" style="stroke: #000000; stroke-width: 0.8"/>
      </defs>
      <g>
       <use xlink:href="#m795eef94f2" x="53.444072" y="88.77084" style="stroke: #000000; stroke-width: 0.8"/>
      </g>
     </g>
     <g id="text_1">
      <!-- pre_stim -->
      <g transform="translate(40.081411 131.57475) rotate(-45) scale(0.1 -0.1)">
       <defs>
        <path id="DejaVuSans-70" d="M 1159 525 
L 1159 -1331 
L 581 -1331 
L 581 3500 
L 1159 3500 
L 1159 2969 
Q 1341 3281 1617 3432 
Q 1894 3584 2278 3584 
Q 2916 3584 3314 3078 
Q 3713 2572 3713 1747 
Q 3713 922 3314 415 
Q 2916 -91 2278 -91 
Q 1894 -91 1617 61 
Q 1341 213 1159 525 
z
M 3116 1747 
Q 3116 2381 2855 2742 
Q 2594 3103 2138 3103 
Q 1681 3103 1420 2742 
Q 1159 2381 1159 1747 
Q 1159 1113 1420 752 
Q 1681 391 2138 391 
Q 2594 391 2855 752 
Q 3116 1113 3116 1747 
z
" transform="scale(0.015625)"/>
        <path id="DejaVuSans-72" d="M 2631 2963 
Q 2534 3019 2420 3045 
Q 2306 3072 2169 3072 
Q 1681 3072 1420 2755 
Q 1159 2438 1159 1844 
L 1159 0 
L 581 0 
L 581 3500 
L 1159 3500 
L 1159 2956 
Q 1341 3275 1631 3429 
Q 1922 3584 2338 3584 
Q 2397 3584 2469 3576 
Q 2541 3569 2628 3553 
L 2631 2963 
z
" transform="scale(0.015625)"/>
        <path id="DejaVuSans-65" d="M 3597 1894 
L 3597 1613 
L 953 1613 
Q 991 1019 1311 708 
Q 1631 397 2203 397 
Q 2534 397 2845 478 
Q 3156 559 3463 722 
L 3463 178 
Q 3153 47 2828 -22 
Q 2503 -91 2169 -91 
Q 1331 -91 842 396 
Q 353 884 353 1716 
Q 353 2575 817 3079 
Q 1281 3584 2069 3584 
Q 2775 3584 3186 3129 
Q 3597 2675 3597 1894 
z
M 3022 2063 
Q 3016 2534 2758 2815 
Q 2500 3097 2075 3097 
Q 1594 3097 1305 2825 
Q 1016 2553 972 2059 
L 3022 2063 
z
" transform="scale(0.015625)"/>
        <path id="DejaVuSans-5f" d="M 3263 -1063 
L 3263 -1509 
L -63 -1509 
L -63 -1063 
L 3263 -1063 
z
" transform="scale(0.015625)"/>
        <path id="DejaVuSans-73" d="M 2834 3397 
L 2834 2853 
Q 2591 2978 2328 3040 
Q 2066 3103 1784 3103 
Q 1356 3103 1142 2972 
Q 928 2841 928 2578 
Q 928 2378 1081 2264 
Q 1234 2150 1697 2047 
L 1894 2003 
Q 2506 1872 2764 1633 
Q 3022 1394 3022 966 
Q 3022 478 2636 193 
Q 2250 -91 1575 -91 
Q 1294 -91 989 -36 
Q 684 19 347 128 
L 347 722 
Q 666 556 975 473 
Q 1284 391 1588 391 
Q 1994 391 2212 530 
Q 2431 669 2431 922 
Q 2431 1156 2273 1281 
Q 2116 1406 1581 1522 
L 1381 1569 
Q 847 1681 609 1914 
Q 372 2147 372 2553 
Q 372 3047 722 3315 
Q 1072 3584 1716 3584 
Q 2034 3584 2315 3537 
Q 2597 3491 2834 3397 
z
" transform="scale(0.015625)"/>
        <path id="DejaVuSans-74" d="M 1172 4494 
L 1172 3500 
L 2356 3500 
L 2356 3053 
L 1172 3053 
L 1172 1153 
Q 1172 725 1289 603 
Q 1406 481 1766 481 
L 2356 481 
L 2356 0 
L 1766 0 
Q 1100 0 847 248 
Q 594 497 594 1153 
L 594 3053 
L 172 3053 
L 172 3500 
L 594 3500 
L 594 4494 
L 1172 4494 
z
" transform="scale(0.015625)"/>
        <path id="DejaVuSans-69" d="M 603 3500 
L 1178 3500 
L 1178 0 
L 603 0 
L 603 3500 
z
M 603 4863 
L 1178 4863 
L 1178 4134 
L 603 4134 
L 603 4863 
z
" transform="scale(0.015625)"/>
        <path id="DejaVuSans-6d" d="M 3328 2828 
Q 3544 3216 3844 3400 
Q 4144 3584 4550 3584 
Q 5097 3584 5394 3201 
Q 5691 2819 5691 2113 
L 5691 0 
L 5113 0 
L 5113 2094 
Q 5113 2597 4934 2840 
Q 4756 3084 4391 3084 
Q 3944 3084 3684 2787 
Q 3425 2491 3425 1978 
L 3425 0 
L 2847 0 
L 2847 2094 
Q 2847 2600 2669 2842 
Q 2491 3084 2119 3084 
Q 1678 3084 1418 2786 
Q 1159 2488 1159 1978 
L 1159 0 
L 581 0 
L 581 3500 
L 1159 3500 
L 1159 2956 
Q 1356 3278 1631 3431 
Q 1906 3584 2284 3584 
Q 2666 3584 2933 3390 
Q 3200 3197 3328 2828 
z
" transform="scale(0.015625)"/>
       </defs>
       <use xlink:href="#DejaVuSans-70"/>
       <use xlink:href="#DejaVuSans-72" transform="translate(63.476562 0)"/>
       <use xlink:href="#DejaVuSans-65" transform="translate(102.339844 0)"/>
       <use xlink:href="#DejaVuSans-5f" transform="translate(163.863281 0)"/>
       <use xlink:href="#DejaVuSans-73" transform="translate(213.863281 0)"/>
       <use xlink:href="#DejaVuSans-74" transform="translate(265.962891 0)"/>
       <use xlink:href="#DejaVuSans-69" transform="translate(305.171875 0)"/>
       <use xlink:href="#DejaVuSans-6d" transform="translate(332.955078 0)"/>
      </g>
     </g>
    </g>
    <g id="xtick_2">
     <g id="line2d_2">
      <g>
       <use xlink:href="#m795eef94f2" x="81.169236" y="88.77084" style="stroke: #000000; stroke-width: 0.8"/>
      </g>
     </g>
     <g id="text_2">
      <!-- stim_to_outcome -->
      <g transform="translate(52.766746 161.65441) rotate(-45) scale(0.1 -0.1)">
       <defs>
        <path id="DejaVuSans-6f" d="M 1959 3097 
Q 1497 3097 1228 2736 
Q 959 2375 959 1747 
Q 959 1119 1226 758 
Q 1494 397 1959 397 
Q 2419 397 2687 759 
Q 2956 1122 2956 1747 
Q 2956 2369 2687 2733 
Q 2419 3097 1959 3097 
z
M 1959 3584 
Q 2709 3584 3137 3096 
Q 3566 2609 3566 1747 
Q 3566 888 3137 398 
Q 2709 -91 1959 -91 
Q 1206 -91 779 398 
Q 353 888 353 1747 
Q 353 2609 779 3096 
Q 1206 3584 1959 3584 
z
" transform="scale(0.015625)"/>
        <path id="DejaVuSans-75" d="M 544 1381 
L 544 3500 
L 1119 3500 
L 1119 1403 
Q 1119 906 1312 657 
Q 1506 409 1894 409 
Q 2359 409 2629 706 
Q 2900 1003 2900 1516 
L 2900 3500 
L 3475 3500 
L 3475 0 
L 2900 0 
L 2900 538 
Q 2691 219 2414 64 
Q 2138 -91 1772 -91 
Q 1169 -91 856 284 
Q 544 659 544 1381 
z
M 1991 3584 
L 1991 3584 
z
" transform="scale(0.015625)"/>
        <path id="DejaVuSans-63" d="M 3122 3366 
L 3122 2828 
Q 2878 2963 2633 3030 
Q 2388 3097 2138 3097 
Q 1578 3097 1268 2742 
Q 959 2388 959 1747 
Q 959 1106 1268 751 
Q 1578 397 2138 397 
Q 2388 397 2633 464 
Q 2878 531 3122 666 
L 3122 134 
Q 2881 22 2623 -34 
Q 2366 -91 2075 -91 
Q 1284 -91 818 406 
Q 353 903 353 1747 
Q 353 2603 823 3093 
Q 1294 3584 2113 3584 
Q 2378 3584 2631 3529 
Q 2884 3475 3122 3366 
z
" transform="scale(0.015625)"/>
       </defs>
       <use xlink:href="#DejaVuSans-73"/>
       <use xlink:href="#DejaVuSans-74" transform="translate(52.099609 0)"/>
       <use xlink:href="#DejaVuSans-69" transform="translate(91.308594 0)"/>
       <use xlink:href="#DejaVuSans-6d" transform="translate(119.091797 0)"/>
       <use xlink:href="#DejaVuSans-5f" transform="translate(216.503906 0)"/>
       <use xlink:href="#DejaVuSans-74" transform="translate(266.503906 0)"/>
       <use xlink:href="#DejaVuSans-6f" transform="translate(305.712891 0)"/>
       <use xlink:href="#DejaVuSans-5f" transform="translate(366.894531 0)"/>
       <use xlink:href="#DejaVuSans-6f" transform="translate(416.894531 0)"/>
       <use xlink:href="#DejaVuSans-75" transform="translate(478.076172 0)"/>
       <use xlink:href="#DejaVuSans-74" transform="translate(541.455078 0)"/>
       <use xlink:href="#DejaVuSans-63" transform="translate(580.664062 0)"/>
       <use xlink:href="#DejaVuSans-6f" transform="translate(635.644531 0)"/>
       <use xlink:href="#DejaVuSans-6d" transform="translate(696.826172 0)"/>
       <use xlink:href="#DejaVuSans-65" transform="translate(794.238281 0)"/>
      </g>
     </g>
    </g>
    <g id="xtick_3">
     <g id="line2d_3">
      <g>
       <use xlink:href="#m795eef94f2" x="108.894401" y="88.77084" style="stroke: #000000; stroke-width: 0.8"/>
      </g>
     </g>
     <g id="text_3">
      <!-- outcome_to_end -->
      <g transform="translate(81.485174 159.667882) rotate(-45) scale(0.1 -0.1)">
       <defs>
        <path id="DejaVuSans-6e" d="M 3513 2113 
L 3513 0 
L 2938 0 
L 2938 2094 
Q 2938 2591 2744 2837 
Q 2550 3084 2163 3084 
Q 1697 3084 1428 2787 
Q 1159 2491 1159 1978 
L 1159 0 
L 581 0 
L 581 3500 
L 1159 3500 
L 1159 2956 
Q 1366 3272 1645 3428 
Q 1925 3584 2291 3584 
Q 2894 3584 3203 3211 
Q 3513 2838 3513 2113 
z
" transform="scale(0.015625)"/>
        <path id="DejaVuSans-64" d="M 2906 2969 
L 2906 4863 
L 3481 4863 
L 3481 0 
L 2906 0 
L 2906 525 
Q 2725 213 2448 61 
Q 2172 -91 1784 -91 
Q 1150 -91 751 415 
Q 353 922 353 1747 
Q 353 2572 751 3078 
Q 1150 3584 1784 3584 
Q 2172 3584 2448 3432 
Q 2725 3281 2906 2969 
z
M 947 1747 
Q 947 1113 1208 752 
Q 1469 391 1925 391 
Q 2381 391 2643 752 
Q 2906 1113 2906 1747 
Q 2906 2381 2643 2742 
Q 2381 3103 1925 3103 
Q 1469 3103 1208 2742 
Q 947 2381 947 1747 
z
" transform="scale(0.015625)"/>
       </defs>
       <use xlink:href="#DejaVuSans-6f"/>
       <use xlink:href="#DejaVuSans-75" transform="translate(61.181641 0)"/>
       <use xlink:href="#DejaVuSans-74" transform="translate(124.560547 0)"/>
       <use xlink:href="#DejaVuSans-63" transform="translate(163.769531 0)"/>
       <use xlink:href="#DejaVuSans-6f" transform="translate(218.75 0)"/>
       <use xlink:href="#DejaVuSans-6d" transform="translate(279.931641 0)"/>
       <use xlink:href="#DejaVuSans-65" transform="translate(377.34375 0)"/>
       <use xlink:href="#DejaVuSans-5f" transform="translate(438.867188 0)"/>
       <use xlink:href="#DejaVuSans-74" transform="translate(488.867188 0)"/>
       <use xlink:href="#DejaVuSans-6f" transform="translate(528.076172 0)"/>
       <use xlink:href="#DejaVuSans-5f" transform="translate(589.257812 0)"/>
       <use xlink:href="#DejaVuSans-65" transform="translate(639.257812 0)"/>
       <use xlink:href="#DejaVuSans-6e" transform="translate(700.78125 0)"/>
       <use xlink:href="#DejaVuSans-64" transform="translate(764.160156 0)"/>
      </g>
     </g>
    </g>
    <g id="text_4">
     <!-- phase -->
     <g transform="translate(66.080955 174.920073) scale(0.1 -0.1)">
      <defs>
       <path id="DejaVuSans-68" d="M 3513 2113 
L 3513 0 
L 2938 0 
L 2938 2094 
Q 2938 2591 2744 2837 
Q 2550 3084 2163 3084 
Q 1697 3084 1428 2787 
Q 1159 2491 1159 1978 
L 1159 0 
L 581 0 
L 581 4863 
L 1159 4863 
L 1159 2956 
Q 1366 3272 1645 3428 
Q 1925 3584 2291 3584 
Q 2894 3584 3203 3211 
Q 3513 2838 3513 2113 
z
" transform="scale(0.015625)"/>
       <path id="DejaVuSans-61" d="M 2194 1759 
Q 1497 1759 1228 1600 
Q 959 1441 959 1056 
Q 959 750 1161 570 
Q 1363 391 1709 391 
Q 2188 391 2477 730 
Q 2766 1069 2766 1631 
L 2766 1759 
L 2194 1759 
z
M 3341 1997 
L 3341 0 
L 2766 0 
L 2766 531 
Q 2569 213 2275 61 
Q 1981 -91 1556 -91 
Q 1019 -91 701 211 
Q 384 513 384 1019 
Q 384 1609 779 1909 
Q 1175 2209 1959 2209 
L 2766 2209 
L 2766 2266 
Q 2766 2663 2505 2880 
Q 2244 3097 1772 3097 
Q 1472 3097 1187 3025 
Q 903 2953 641 2809 
L 641 3341 
Q 956 3463 1253 3523 
Q 1550 3584 1831 3584 
Q 2591 3584 2966 3190 
Q 3341 2797 3341 1997 
z
" transform="scale(0.015625)"/>
      </defs>
      <use xlink:href="#DejaVuSans-70"/>
      <use xlink:href="#DejaVuSans-68" transform="translate(63.476562 0)"/>
      <use xlink:href="#DejaVuSans-61" transform="translate(126.855469 0)"/>
      <use xlink:href="#DejaVuSans-73" transform="translate(188.134766 0)"/>
      <use xlink:href="#DejaVuSans-65" transform="translate(240.234375 0)"/>
     </g>
    </g>
   </g>
   <g id="matplotlib.axis_2">
    <g id="ytick_1">
     <g id="line2d_4">
      <defs>
       <path id="mb6e5edd504" d="M 0 0 
L -3.5 0 
" style="stroke: #000000; stroke-width: 0.8"/>
      </defs>
      <g>
       <use xlink:href="#mb6e5edd504" x="39.58149" y="71.551397" style="stroke: #000000; stroke-width: 0.8"/>
      </g>
     </g>
     <g id="text_5">
      <!-- 0.4 -->
      <g transform="translate(16.678365 75.350616) scale(0.1 -0.1)">
       <defs>
        <path id="DejaVuSans-30" d="M 2034 4250 
Q 1547 4250 1301 3770 
Q 1056 3291 1056 2328 
Q 1056 1369 1301 889 
Q 1547 409 2034 409 
Q 2525 409 2770 889 
Q 3016 1369 3016 2328 
Q 3016 3291 2770 3770 
Q 2525 4250 2034 4250 
z
M 2034 4750 
Q 2819 4750 3233 4129 
Q 3647 3509 3647 2328 
Q 3647 1150 3233 529 
Q 2819 -91 2034 -91 
Q 1250 -91 836 529 
Q 422 1150 422 2328 
Q 422 3509 836 4129 
Q 1250 4750 2034 4750 
z
" transform="scale(0.015625)"/>
        <path id="DejaVuSans-2e" d="M 684 794 
L 1344 794 
L 1344 0 
L 684 0 
L 684 794 
z
" transform="scale(0.015625)"/>
        <path id="DejaVuSans-34" d="M 2419 4116 
L 825 1625 
L 2419 1625 
L 2419 4116 
z
M 2253 4666 
L 3047 4666 
L 3047 1625 
L 3713 1625 
L 3713 1100 
L 3047 1100 
L 3047 0 
L 2419 0 
L 2419 1100 
L 313 1100 
L 313 1709 
L 2253 4666 
z
" transform="scale(0.015625)"/>
       </defs>
       <use xlink:href="#DejaVuSans-30"/>
       <use xlink:href="#DejaVuSans-2e" transform="translate(63.623047 0)"/>
       <use xlink:href="#DejaVuSans-34" transform="translate(95.410156 0)"/>
      </g>
     </g>
    </g>
    <g id="ytick_2">
     <g id="line2d_5">
      <g>
       <use xlink:href="#mb6e5edd504" x="39.58149" y="40.424269" style="stroke: #000000; stroke-width: 0.8"/>
      </g>
     </g>
     <g id="text_6">
      <!-- 0.6 -->
      <g transform="translate(16.678365 44.223488) scale(0.1 -0.1)">
       <defs>
        <path id="DejaVuSans-36" d="M 2113 2584 
Q 1688 2584 1439 2293 
Q 1191 2003 1191 1497 
Q 1191 994 1439 701 
Q 1688 409 2113 409 
Q 2538 409 2786 701 
Q 3034 994 3034 1497 
Q 3034 2003 2786 2293 
Q 2538 2584 2113 2584 
z
M 3366 4563 
L 3366 3988 
Q 3128 4100 2886 4159 
Q 2644 4219 2406 4219 
Q 1781 4219 1451 3797 
Q 1122 3375 1075 2522 
Q 1259 2794 1537 2939 
Q 1816 3084 2150 3084 
Q 2853 3084 3261 2657 
Q 3669 2231 3669 1497 
Q 3669 778 3244 343 
Q 2819 -91 2113 -91 
Q 1303 -91 875 529 
Q 447 1150 447 2328 
Q 447 3434 972 4092 
Q 1497 4750 2381 4750 
Q 2619 4750 2861 4703 
Q 3103 4656 3366 4563 
z
" transform="scale(0.015625)"/>
       </defs>
       <use xlink:href="#DejaVuSans-30"/>
       <use xlink:href="#DejaVuSans-2e" transform="translate(63.623047 0)"/>
       <use xlink:href="#DejaVuSans-36" transform="translate(95.410156 0)"/>
      </g>
     </g>
    </g>
    <g id="ytick_3">
     <g id="line2d_6">
      <g>
       <use xlink:href="#mb6e5edd504" x="39.58149" y="9.297141" style="stroke: #000000; stroke-width: 0.8"/>
      </g>
     </g>
     <g id="text_7">
      <!-- 0.8 -->
      <g transform="translate(16.678365 13.09636) scale(0.1 -0.1)">
       <defs>
        <path id="DejaVuSans-38" d="M 2034 2216 
Q 1584 2216 1326 1975 
Q 1069 1734 1069 1313 
Q 1069 891 1326 650 
Q 1584 409 2034 409 
Q 2484 409 2743 651 
Q 3003 894 3003 1313 
Q 3003 1734 2745 1975 
Q 2488 2216 2034 2216 
z
M 1403 2484 
Q 997 2584 770 2862 
Q 544 3141 544 3541 
Q 544 4100 942 4425 
Q 1341 4750 2034 4750 
Q 2731 4750 3128 4425 
Q 3525 4100 3525 3541 
Q 3525 3141 3298 2862 
Q 3072 2584 2669 2484 
Q 3125 2378 3379 2068 
Q 3634 1759 3634 1313 
Q 3634 634 3220 271 
Q 2806 -91 2034 -91 
Q 1263 -91 848 271 
Q 434 634 434 1313 
Q 434 1759 690 2068 
Q 947 2378 1403 2484 
z
M 1172 3481 
Q 1172 3119 1398 2916 
Q 1625 2713 2034 2713 
Q 2441 2713 2670 2916 
Q 2900 3119 2900 3481 
Q 2900 3844 2670 4047 
Q 2441 4250 2034 4250 
Q 1625 4250 1398 4047 
Q 1172 3844 1172 3481 
z
" transform="scale(0.015625)"/>
       </defs>
       <use xlink:href="#DejaVuSans-30"/>
       <use xlink:href="#DejaVuSans-2e" transform="translate(63.623047 0)"/>
       <use xlink:href="#DejaVuSans-38" transform="translate(95.410156 0)"/>
      </g>
     </g>
    </g>
    <g id="text_8">
     <!-- score -->
     <g transform="translate(10.598677 59.318353) rotate(-90) scale(0.1 -0.1)">
      <use xlink:href="#DejaVuSans-73"/>
      <use xlink:href="#DejaVuSans-63" transform="translate(52.099609 0)"/>
      <use xlink:href="#DejaVuSans-6f" transform="translate(107.080078 0)"/>
      <use xlink:href="#DejaVuSans-72" transform="translate(168.261719 0)"/>
      <use xlink:href="#DejaVuSans-65" transform="translate(207.125 0)"/>
     </g>
    </g>
   </g>
   <g id="line2d_7">
    <path d="M 46.512781 46.090171 
L 60.375363 46.090171 
L 60.375363 38.155729 
L 46.512781 38.155729 
L 46.512781 46.090171 
" clip-path="url(#p246ef20953)" style="fill: none; stroke: #000000; stroke-width: 1.5; stroke-linecap: square"/>
   </g>
   <g id="line2d_8">
    <path d="M 53.444072 46.090171 
L 53.444072 50.345453 
" clip-path="url(#p246ef20953)" style="fill: none; stroke: #000000; stroke-width: 1.5"/>
   </g>
   <g id="line2d_9">
    <path d="M 53.444072 38.155729 
L 53.444072 32.540543 
" clip-path="url(#p246ef20953)" style="fill: none; stroke: #000000; stroke-width: 1.5"/>
   </g>
   <g id="line2d_10">
    <path d="M 49.978427 50.345453 
L 56.909718 50.345453 
" clip-path="url(#p246ef20953)" style="fill: none; stroke: #000000; stroke-width: 1.5; stroke-linecap: square"/>
   </g>
   <g id="line2d_11">
    <path d="M 49.978427 32.540543 
L 56.909718 32.540543 
" clip-path="url(#p246ef20953)" style="fill: none; stroke: #000000; stroke-width: 1.5; stroke-linecap: square"/>
   </g>
   <g id="line2d_12"/>
   <g id="line2d_13">
    <path d="M 74.237945 46.094328 
L 88.100527 46.094328 
L 88.100527 20.331791 
L 74.237945 20.331791 
L 74.237945 46.094328 
" clip-path="url(#p246ef20953)" style="fill: none; stroke: #000000; stroke-width: 1.5; stroke-linecap: square"/>
   </g>
   <g id="line2d_14">
    <path d="M 81.169236 46.094328 
L 81.169236 69.629204 
" clip-path="url(#p246ef20953)" style="fill: none; stroke: #000000; stroke-width: 1.5"/>
   </g>
   <g id="line2d_15">
    <path d="M 81.169236 20.331791 
L 81.169236 6.898904 
" clip-path="url(#p246ef20953)" style="fill: none; stroke: #000000; stroke-width: 1.5"/>
   </g>
   <g id="line2d_16">
    <path d="M 77.703591 69.629204 
L 84.634882 69.629204 
" clip-path="url(#p246ef20953)" style="fill: none; stroke: #000000; stroke-width: 1.5; stroke-linecap: square"/>
   </g>
   <g id="line2d_17">
    <path d="M 77.703591 6.898904 
L 84.634882 6.898904 
" clip-path="url(#p246ef20953)" style="fill: none; stroke: #000000; stroke-width: 1.5; stroke-linecap: square"/>
   </g>
   <g id="line2d_18">
    <defs>
     <path id="m652ea446a4" d="M 0 3 
C 0.795609 3 1.55874 2.683901 2.12132 2.12132 
C 2.683901 1.55874 3 0.795609 3 0 
C 3 -0.795609 2.683901 -1.55874 2.12132 -2.12132 
C 1.55874 -2.683901 0.795609 -3 0 -3 
C -0.795609 -3 -1.55874 -2.683901 -2.12132 -2.12132 
C -2.683901 -1.55874 -3 -0.795609 -3 0 
C -3 0.795609 -2.683901 1.55874 -2.12132 2.12132 
C -1.55874 2.683901 -0.795609 3 0 3 
z
" style="stroke: #000000"/>
    </defs>
    <g clip-path="url(#p246ef20953)">
     <use xlink:href="#m652ea446a4" x="81.169236" y="84.872177" style="fill-opacity: 0; stroke: #000000"/>
    </g>
   </g>
   <g id="line2d_19">
    <path d="M 101.96311 32.995369 
L 115.825692 32.995369 
L 115.825692 18.475346 
L 101.96311 18.475346 
L 101.96311 32.995369 
" clip-path="url(#p246ef20953)" style="fill: none; stroke: #000000; stroke-width: 1.5; stroke-linecap: square"/>
   </g>
   <g id="line2d_20">
    <path d="M 108.894401 32.995369 
L 108.894401 40.973572 
" clip-path="url(#p246ef20953)" style="fill: none; stroke: #000000; stroke-width: 1.5"/>
   </g>
   <g id="line2d_21">
    <path d="M 108.894401 18.475346 
L 108.894401 9.6733 
" clip-path="url(#p246ef20953)" style="fill: none; stroke: #000000; stroke-width: 1.5"/>
   </g>
   <g id="line2d_22">
    <path d="M 105.428755 40.973572 
L 112.360046 40.973572 
" clip-path="url(#p246ef20953)" style="fill: none; stroke: #000000; stroke-width: 1.5; stroke-linecap: square"/>
   </g>
   <g id="line2d_23">
    <path d="M 105.428755 9.6733 
L 112.360046 9.6733 
" clip-path="url(#p246ef20953)" style="fill: none; stroke: #000000; stroke-width: 1.5; stroke-linecap: square"/>
   </g>
   <g id="line2d_24"/>
   <g id="line2d_25">
    <path d="M 46.512781 40.847 
L 60.375363 40.847 
" clip-path="url(#p246ef20953)" style="fill: none; stroke: #000000; stroke-width: 1.5"/>
   </g>
   <g id="line2d_26">
    <path d="M 74.237945 31.081895 
L 88.100527 31.081895 
" clip-path="url(#p246ef20953)" style="fill: none; stroke: #000000; stroke-width: 1.5"/>
   </g>
   <g id="line2d_27">
    <path d="M 101.96311 28.516006 
L 115.825692 28.516006 
" clip-path="url(#p246ef20953)" style="fill: none; stroke: #000000; stroke-width: 1.5"/>
   </g>
   <g id="patch_1">
    <path d="M 39.58149 88.77084 
L 39.58149 3.00024 
" style="fill: none; stroke: #000000; stroke-width: 0.8; stroke-linejoin: miter; stroke-linecap: square"/>
   </g>
   <g id="patch_2">
    <path d="M 39.58149 88.77084 
L 122.756983 88.77084 
" style="fill: none; stroke: #000000; stroke-width: 0.8; stroke-linejoin: miter; stroke-linecap: square"/>
   </g>
   <g id="PathCollection_1">
    <defs>
     <path id="mb7c4707e63" d="M 0 1.5 
C 0.397805 1.5 0.77937 1.341951 1.06066 1.06066 
C 1.341951 0.77937 1.5 0.397805 1.5 0 
C 1.5 -0.397805 1.341951 -0.77937 1.06066 -1.06066 
C 0.77937 -1.341951 0.397805 -1.5 0 -1.5 
C -0.397805 -1.5 -0.77937 -1.341951 -1.06066 -1.06066 
C -1.341951 -0.77937 -1.5 -0.397805 -1.5 0 
C -1.5 0.397805 -1.341951 0.77937 -1.06066 1.06066 
C -0.77937 1.341951 -0.397805 1.5 0 1.5 
z
"/>
    </defs>
    <g clip-path="url(#p246ef20953)">
     <use xlink:href="#mb7c4707e63" x="54.754512" y="33.235203"/>
     <use xlink:href="#mb7c4707e63" x="51.928327" y="48.846904"/>
     <use xlink:href="#mb7c4707e63" x="53.417605" y="37.397107"/>
     <use xlink:href="#mb7c4707e63" x="52.408342" y="46.588057"/>
     <use xlink:href="#mb7c4707e63" x="53.219267" y="36.30342"/>
     <use xlink:href="#mb7c4707e63" x="53.280667" y="39.300785"/>
     <use xlink:href="#mb7c4707e63" x="52.489118" y="43.683306"/>
     <use xlink:href="#mb7c4707e63" x="55.307392" y="41.176587"/>
     <use xlink:href="#mb7c4707e63" x="50.900631" y="44.596512"/>
     <use xlink:href="#mb7c4707e63" x="51.14267" y="50.345453"/>
     <use xlink:href="#mb7c4707e63" x="54.6907" y="41.055553"/>
     <use xlink:href="#mb7c4707e63" x="54.644167" y="40.638447"/>
     <use xlink:href="#mb7c4707e63" x="53.878341" y="40.042676"/>
     <use xlink:href="#mb7c4707e63" x="54.232736" y="38.316057"/>
     <use xlink:href="#mb7c4707e63" x="55.664258" y="32.540543"/>
     <use xlink:href="#mb7c4707e63" x="51.109376" y="46.589546"/>
     <use xlink:href="#mb7c4707e63" x="51.411741" y="38.102286"/>
     <use xlink:href="#mb7c4707e63" x="50.890156" y="46.619717"/>
    </g>
   </g>
   <g id="PathCollection_2">
    <g clip-path="url(#p246ef20953)">
     <use xlink:href="#mb7c4707e63" x="80.319783" y="16.792126"/>
     <use xlink:href="#mb7c4707e63" x="83.082335" y="21.381791"/>
     <use xlink:href="#mb7c4707e63" x="81.510735" y="21.274176"/>
     <use xlink:href="#mb7c4707e63" x="80.371698" y="13.919982"/>
     <use xlink:href="#mb7c4707e63" x="79.824108" y="31.520292"/>
     <use xlink:href="#mb7c4707e63" x="79.964691" y="56.813925"/>
     <use xlink:href="#mb7c4707e63" x="80.933705" y="42.353087"/>
     <use xlink:href="#mb7c4707e63" x="82.775961" y="19.547464"/>
     <use xlink:href="#mb7c4707e63" x="80.627007" y="55.027119"/>
     <use xlink:href="#mb7c4707e63" x="79.592012" y="20.017663"/>
     <use xlink:href="#mb7c4707e63" x="80.49215" y="27.944282"/>
     <use xlink:href="#mb7c4707e63" x="83.78262" y="30.643497"/>
     <use xlink:href="#mb7c4707e63" x="79.294312" y="40.042676"/>
     <use xlink:href="#mb7c4707e63" x="79.36436" y="69.629204"/>
     <use xlink:href="#mb7c4707e63" x="79.800632" y="84.872177"/>
     <use xlink:href="#mb7c4707e63" x="81.872774" y="47.341409"/>
     <use xlink:href="#mb7c4707e63" x="82.660621" y="36.219597"/>
     <use xlink:href="#mb7c4707e63" x="80.162628" y="6.898904"/>
    </g>
   </g>
   <g id="PathCollection_3">
    <g clip-path="url(#p246ef20953)">
     <use xlink:href="#mb7c4707e63" x="109.355677" y="16.409728"/>
     <use xlink:href="#mb7c4707e63" x="106.314468" y="40.973572"/>
     <use xlink:href="#mb7c4707e63" x="108.01358" y="15.022427"/>
     <use xlink:href="#mb7c4707e63" x="110.634762" y="30.25402"/>
     <use xlink:href="#mb7c4707e63" x="109.166991" y="18.274705"/>
     <use xlink:href="#mb7c4707e63" x="111.362314" y="34.344236"/>
     <use xlink:href="#mb7c4707e63" x="111.466281" y="27.388122"/>
     <use xlink:href="#mb7c4707e63" x="106.627474" y="9.6733"/>
     <use xlink:href="#mb7c4707e63" x="110.882105" y="23.460808"/>
     <use xlink:href="#mb7c4707e63" x="108.405302" y="19.077266"/>
     <use xlink:href="#mb7c4707e63" x="110.814534" y="29.643891"/>
     <use xlink:href="#mb7c4707e63" x="106.501961" y="33.142235"/>
     <use xlink:href="#mb7c4707e63" x="110.990845" y="19.327599"/>
     <use xlink:href="#mb7c4707e63" x="111.38479" y="33.975621"/>
     <use xlink:href="#mb7c4707e63" x="108.306876" y="36.618332"/>
     <use xlink:href="#mb7c4707e63" x="106.140245" y="32.55477"/>
     <use xlink:href="#mb7c4707e63" x="111.391511" y="10.17573"/>
     <use xlink:href="#mb7c4707e63" x="109.010335" y="30.381649"/>
    </g>
   </g>
  </g>
 </g>
 <defs>
  <clipPath id="p246ef20953">
   <rect x="39.58149" y="3.00024" width="83.175493" height="85.7706"/>
  </clipPath>
 </defs>
</svg>
